<svg xmlns="http://www.w3.org/2000/svg" width="1200" height="630" viewBox="0 0 1200 630">
  <rect width="1200" height="630" fill="#f7f3ec"/>
  <g opacity="0.5" stroke="#e3dbcd" stroke-width="1">
    <line x1="0" y1="126" x2="1200" y2="126"/><line x1="0" y1="252" x2="1200" y2="252"/>
    <line x1="0" y1="378" x2="1200" y2="378"/><line x1="0" y1="504" x2="1200" y2="504"/>
    <line x1="300" y1="0" x2="300" y2="630"/><line x1="600" y1="0" x2="600" y2="630"/><line x1="900" y1="0" x2="900" y2="630"/>
  </g>
  <g transform="translate(80,80)">
    <rect x="0" y="0" width="60" height="60" rx="14" fill="#1f4b3a"/>
    <path d="M16 15v30h15" fill="none" stroke="#fff" stroke-width="4.5" stroke-linecap="square"/>
    <path d="M34 15h7a9 9 0 0 1 9 9v12a9 9 0 0 1-9 9h-7V15z" fill="none" stroke="#c05f3c" stroke-width="4.5"/>
    <text x="78" y="30" font-family="Outfit, sans-serif" font-size="26" font-weight="700" fill="#1b1a17" letter-spacing="1">LANDED</text>
    <text x="78" y="52" font-family="Outfit, sans-serif" font-size="15" font-weight="500" fill="#2c6b4f" letter-spacing="6">DIGITAL</text>
  </g>
  <text x="80" y="300" font-family="Outfit, sans-serif" font-size="72" font-weight="700" fill="#1b1a17">Get found on Google.</text>
  <text x="80" y="380" font-family="Outfit, sans-serif" font-size="72" font-weight="700" fill="#1f4b3a">Build trust.</text>
  <text x="80" y="460" font-family="Outfit, sans-serif" font-size="72" font-weight="700" fill="#1b1a17">Save time with <tspan font-family="Fraunces, serif" font-style="italic" fill="#c05f3c">AI</tspan>.</text>
  <text x="80" y="540" font-family="Inter, sans-serif" font-size="26" fill="#6c665c">Google, reviews, websites and practical AI for Australian businesses.</text>
</svg>
